<svg xmlns="http://www.w3.org/2000/svg" viewBox="0 0 1024 1024">
  <rect width="1024" height="1024" rx="224" fill="#050505"/>
  <path d="M724 240c-88-54-212-70-324-31-80 28-147 82-190 150-37 58-51 121-41 182 8 52 35 98 75 130 41 32 91 48 151 48h262c42 0 77-33 79-75 1-34-20-65-52-76l-71-25 128-71c40-23 59-70 45-113-9-29-31-54-62-71z" fill="#f7f7f7"/>
  <path d="M315 448c35-62 94-109 166-130 67-20 138-14 198 15l-72 83 114 22-170 94 118 42c20 7 33 25 32 46-1 24-21 43-45 43H395c-50 0-88-13-116-36-28-22-46-52-52-88-5-31 0-62 15-91h73z" fill="#080808"/>
  <path d="M338 289l42-129 74 113-31 73-85-57z" fill="#f7f7f7"/>
  <path d="M420 257l92-83 17 119-73 53-36-89z" fill="#f7f7f7"/>
  <path d="M282 526h150l-52 53H245c-10-16-16-34-19-53h56z" fill="#f7f7f7"/>
  <path d="M357 415h168l-49 50H315c11-18 25-35 42-50z" fill="#f7f7f7"/>
  <circle cx="623" cy="372" r="22" fill="#f7f7f7"/>
  <path d="M280 753h128l-45 75H235l45-75z" fill="#f7f7f7"/>
  <path d="M559 753h126l60 75H619l-60-75z" fill="#f7f7f7"/>
</svg>
