<svg xmlns="http://www.w3.org/2000/svg" viewBox="0 0 64 64">
  <path fill="#000000" d="M45.3 9.4c-5.8-3.7-14.9-4.3-22.4-1.2-7.3 3-12.9 8.7-15.4 15.7-2.3 6.2-1.8 12.6 1.4 17.8 3.8 6.4 10.7 9.8 19.8 9.8h15.7c5.6 0 10.1-4 10.1-9 0-4.1-2.8-7.5-6.7-8.6l-4-1.1 9.1-5.1c4-2.3 5.9-6.9 4.6-11.2-.8-2.8-3-5.2-6.2-6.9l-1.1-.6-4.9 5.6V9.4zM19.1 5.8l3.2 8-5.7 3.8-5.4-3.6 2.9-8.6 5 7.3v-6.9zm21 28.8 5.6 1.5c2.2.6 3.8 2.5 3.8 4.6 0 2.7-2.5 4.9-5.5 4.9H28.7c-7.3 0-12.5-2.5-15.4-7.3-1.7-2.8-2.2-6-1.5-9.4h10.7l-5.2 5.6h9.6l8.6-9.2H15.6c2.4-4.9 6.7-8.8 12.1-10.9 5.4-2.1 11.8-1.9 16.6.4l-5 5.9 7.7 1.5-11.8 6.7 8.3 2.3-3.4 3.4zm5.4-15.7c.9 0 1.7.7 1.7 1.7s-.8 1.7-1.7 1.7-1.7-.8-1.7-1.7.8-1.7 1.7-1.7z"/>
</svg>
